<svg xmlns="http://www.w3.org/2000/svg" xmlns:xlink="http://www.w3.org/1999/xlink" width="764.05" height="790.09" viewBox="0 0 764.05 790.09">
  <defs>
    <clipPath id="clip-welcome-img">
      <rect width="764.05" height="790.09"/>
    </clipPath>
  </defs>
  <g id="welcome-img" clip-path="url(#clip-welcome-img)">
    <g id="Group_125" data-name="Group 125" transform="translate(-250.151 -43.389)">
      <g id="Group_86" data-name="Group 86" transform="translate(456.89 143.132)">
        <g id="Group_82" data-name="Group 82" transform="translate(0 0)">
          <path id="Path_170" data-name="Path 170" d="M405.8,208.32l36.818-21.257L405.8,165.807l-36.817,21.256h0L332.17,208.32l36.817,21.257h0L405.8,250.833l36.818-21.257L405.8,208.32Z" transform="translate(-332.17 43.022)" fill="#d4ecff"/>
          <path id="Path_171" data-name="Path 171" d="M361.383,268.53V112.649L398.2,91.392V247.274Z" transform="translate(-287.748 -70.136)" fill="#173d7a"/>
          <path id="Path_172" data-name="Path 172" d="M383.593,112.649,346.776,91.392V247.274l36.817,21.257Z" transform="translate(-309.959 -70.136)" fill="#396caa"/>
          <path id="Path_173" data-name="Path 173" d="M420.411,104.216,383.593,82.959l-36.817,21.256,36.817,21.257Z" transform="translate(-309.959 -82.959)" fill="#d4ecff"/>
        </g>
        <g id="Group_83" data-name="Group 83" transform="translate(73.635 184.223)">
          <path id="Path_174" data-name="Path 174" d="M398.2,177.3l-36.818-21.256v14.171L398.2,191.473Z" transform="translate(-361.383 -156.046)" fill="#95d359"/>
        </g>
        <g id="Group_84" data-name="Group 84" transform="translate(0 63.77)">
          <path id="Path_175" data-name="Path 175" d="M346.776,251.316V137.948l36.817-21.257V230.06Z" transform="translate(-309.959 -95.435)" fill="#c13d1a"/>
          <path id="Path_176" data-name="Path 176" d="M368.987,137.948,332.17,116.691V230.06l36.817,21.256Z" transform="translate(-332.17 -95.435)" fill="#db5126"/>
          <path id="Path_177" data-name="Path 177" d="M405.8,129.515l-36.817-21.257L332.17,129.515l36.817,21.257Z" transform="translate(-332.17 -108.258)" fill="#ef602e"/>
          <path id="Path_178" data-name="Path 178" d="M346.776,251.316V137.948l36.817-21.257V230.06Z" transform="translate(-309.959 -95.435)" fill="#396caa"/>
          <path id="Path_179" data-name="Path 179" d="M368.987,137.948,332.17,116.691V230.06l36.817,21.256Z" transform="translate(-332.17 -95.435)" fill="#5793ce"/>
          <path id="Path_180" data-name="Path 180" d="M405.8,129.515l-36.817-21.257L332.17,129.515l36.817,21.257Z" transform="translate(-332.17 -108.258)" fill="#d4ecff"/>
        </g>
        <g id="Group_85" data-name="Group 85" transform="translate(36.817 134.625)">
          <path id="Path_181" data-name="Path 181" d="M361.383,229.828v-63.77L398.2,144.8v63.77Z" transform="translate(-324.565 -123.545)" fill="#173d7a"/>
          <path id="Path_182" data-name="Path 182" d="M383.593,166.058,346.776,144.8v63.77l36.817,21.256Z" transform="translate(-346.776 -123.545)" fill="#396caa"/>
          <path id="Path_183" data-name="Path 183" d="M420.411,157.625l-36.818-21.256-36.817,21.256,36.817,21.257Z" transform="translate(-346.776 -136.368)" fill="#d4ecff"/>
        </g>
      </g>
      <g id="Group_87" data-name="Group 87" transform="translate(981.08 462.584)">
        <rect id="Rectangle_139" data-name="Rectangle 139" width="4.411" height="12.813" transform="translate(31.407 0) rotate(75.627)" fill="#5793ce"/>
        <rect id="Rectangle_140" data-name="Rectangle 140" width="4.411" height="12.813" transform="translate(25.076 6.176) rotate(75.624)" fill="#5793ce"/>
        <rect id="Rectangle_141" data-name="Rectangle 141" width="4.411" height="12.813" transform="translate(18.744 12.353) rotate(75.624)" fill="#5793ce"/>
        <rect id="Rectangle_142" data-name="Rectangle 142" width="4.411" height="12.813" transform="translate(12.412 18.529) rotate(75.627)" fill="#5793ce"/>
      </g>
      <g id="Group_93" data-name="Group 93" transform="translate(401.809 171.86)">
        <g id="Group_90" data-name="Group 90">
          <path id="Path_184" data-name="Path 184" d="M593.681,512.049,315.627,351.514c-7.864-4.54-6.879-12.472,2.206-17.717L507.165,224.522c9.082-5.243,22.822-5.813,30.686-1.27L815.9,383.784c7.867,4.542,6.881,12.475-2.2,17.718L624.367,510.776C615.285,516.021,601.545,516.591,593.681,512.049Z" transform="translate(-310.318 96.983)" fill="#d4ecff"/>
          <g id="Group_88" data-name="Group 88" transform="translate(207.883)">
            <path id="Path_185" data-name="Path 185" d="M697.216,259.338,414.577,96.293c-3.64-2.1-6.985-2.425-9.677-1.3l.01-.033-.464.214c-.035.018-.076.033-.111.053l-9.2,4.33,9.989,4.971c0,.189-.02.363-.02.552l.086,232.146c.005,11.618,7.194,25.181,16.061,30.293l275.1,158.7,1.563,12.949,10.045-4.792c3.309-1.946,5.407-6.339,5.4-12.6l-.088-232.143C713.272,278.016,706.081,264.453,697.216,259.338Z" transform="translate(-389.227 -94.357)" fill="#173d7a"/>
            <path id="Path_186" data-name="Path 186" d="M697.216,259.338,414.577,96.293c-3.64-2.1-6.985-2.425-9.677-1.3l.01-.033-.464.214c-.035.018-.076.033-.111.053l-9.2,4.33,9.989,4.971c0,.189-.02.363-.02.552l.058,153L533.788,359.71l174.65-87.895C705.542,266.436,701.584,261.859,697.216,259.338Z" transform="translate(-389.227 -94.357)" fill="#396caa"/>
            <path id="Path_187" data-name="Path 187" d="M533.56,161.258l-27.7,11.653,20.914,16.112,17.463-7.436A40.65,40.65,0,0,0,533.56,161.258Z" transform="translate(-220.85 7.376)" fill="#274f89"/>
            <path id="Path_188" data-name="Path 188" d="M691.576,535.3,408.937,372.255c-8.865-5.112-16.057-18.675-16.059-30.293l-.088-232.143c0-11.618,7.179-16.891,16.044-11.776L691.475,261.087c8.865,5.114,16.054,18.678,16.059,30.3l.086,232.143C707.625,535.143,700.441,540.417,691.576,535.3Z" transform="translate(-392.79 -91.722)" fill="#d4ecff"/>
            <path id="Path_189" data-name="Path 189" d="M675.757,507.762l-263.971-152.2c-8.111-4.681-14.693-17.092-14.7-27.724l-.081-212.429c0-10.632,6.571-15.457,14.683-10.776l263.971,152.2c8.111,4.678,14.693,17.09,14.7,27.722l.081,212.429C690.442,507.618,683.868,512.443,675.757,507.762Z" transform="translate(-386.373 -81.451)" fill="#fff"/>
            <path id="Path_190" data-name="Path 190" d="M675.757,507.762l-263.971-152.2c-8.111-4.681-14.693-17.092-14.7-27.724l-.081-212.429c0-10.632,6.571-15.457,14.683-10.776l263.971,152.2c8.111,4.678,14.693,17.09,14.7,27.722l.081,212.429C690.442,507.618,683.868,512.443,675.757,507.762Z" transform="translate(-386.373 -81.451)" fill="#fff"/>
          </g>
          <path id="Path_191" data-name="Path 191" d="M821.2,363.527l-38.009-5.019L537.844,216.857c-7.864-4.54-21.6-3.97-30.686,1.273L333.305,318.466l-22.983-3.035v13.042l.023,0c-.151,3.012,1.565,5.913,5.276,8.056L593.674,497.063c7.865,4.542,21.6,3.973,30.686-1.27L813.693,386.518c5.11-2.952,7.658-6.753,7.509-10.322h0Z" transform="translate(-310.311 87.262)" fill="#173d7a"/>
          <path id="Path_192" data-name="Path 192" d="M636.855,243.759l-17.43-10.065H427.781L333.305,288.2l-22.983-3.035V298.21l.023,0c-.151,3.012,1.565,5.913,5.276,8.056L593.674,466.8c4.157,2.4,9.954,3.36,15.837,2.969Z" transform="translate(-310.311 117.525)" fill="#396caa"/>
          <path id="Path_193" data-name="Path 193" d="M320.52,255.463l-10.2-1.349v13.042l.023,0c-.151,3.012,1.565,5.913,5.276,8.056l4.9,2.828Z" transform="translate(-310.311 148.578)" fill="#5793ce"/>
          <path id="Path_194" data-name="Path 194" d="M423.846,345.212c7.454,2.828,18.113,2.213,26.073-1.618V314.508H423.846Z" transform="translate(-137.682 240.414)" fill="#274f89"/>
          <path id="Path_195" data-name="Path 195" d="M593.681,497.08,315.627,336.546c-7.864-4.54-6.879-12.472,2.206-17.717L507.165,209.553c9.082-5.243,22.822-5.813,30.686-1.27L815.9,368.815c7.867,4.542,6.881,12.475-2.2,17.717L624.367,495.807C615.285,501.052,601.545,501.622,593.681,497.08Z" transform="translate(-310.318 74.221)" fill="#d4ecff"/>
          <path id="Path_196" data-name="Path 196" d="M813.69,308.642,624.357,417.917c-9.082,5.243-22.822,5.812-30.686,1.273L315.617,258.656a10.358,10.358,0,0,1-4.89-5.349c-1.23,3.72.34,7.481,4.89,10.113L593.671,423.951c7.865,4.542,21.6,3.973,30.686-1.27L813.69,313.4c6.105-3.524,8.535-8.26,7.093-12.369C819.888,303.745,817.519,306.432,813.69,308.642Z" transform="translate(-310.308 147.349)" fill="#fff"/>
          <g id="Group_89" data-name="Group 89" transform="translate(110.307 289.323)">
            <path id="Path_197" data-name="Path 197" d="M367.342,247.5l-12.58-7.264c-1.011-.582-.885-1.6.282-2.274l14.849-8.575a4.379,4.379,0,0,1,3.942-.161l12.581,7.262c1.011.585.882,1.6-.282,2.276l-14.852,8.573A4.382,4.382,0,0,1,367.342,247.5Z" transform="translate(-354.079 -179.198)" fill="#173d7a"/>
            <path id="Path_198" data-name="Path 198" d="M375.05,251.947l-12.581-7.264c-1.011-.582-.885-1.6.282-2.274l14.849-8.575a4.379,4.379,0,0,1,3.942-.161l12.58,7.262c1.008.585.882,1.6-.285,2.276l-14.849,8.573A4.382,4.382,0,0,1,375.05,251.947Z" transform="translate(-342.358 -172.432)" fill="#173d7a"/>
            <path id="Path_199" data-name="Path 199" d="M382.756,256.4l-12.58-7.262c-1.008-.585-.882-1.6.285-2.276l14.849-8.573a4.367,4.367,0,0,1,3.94-.164l12.58,7.262c1.011.585.885,1.6-.282,2.276L386.7,256.233A4.379,4.379,0,0,1,382.756,256.4Z" transform="translate(-330.637 -165.665)" fill="#173d7a"/>
            <path id="Path_200" data-name="Path 200" d="M393.418,251.892l-12.581-7.265c-1.011-.582-.885-1.6.282-2.274l12.465-7.2a4.371,4.371,0,0,1,3.942-.164l12.581,7.262c1.008.585.882,1.6-.285,2.276l-12.465,7.2A4.382,4.382,0,0,1,393.418,251.892Z" transform="translate(-314.427 -170.423)" fill="#173d7a"/>
            <path id="Path_201" data-name="Path 201" d="M401.124,256.34l-12.58-7.262c-1.008-.585-.882-1.6.285-2.276l12.465-7.2a4.382,4.382,0,0,1,3.94-.164l12.58,7.264c1.011.582.885,1.6-.282,2.274l-12.465,7.2A4.379,4.379,0,0,1,401.124,256.34Z" transform="translate(-302.706 -163.655)" fill="#173d7a"/>
            <path id="Path_202" data-name="Path 202" d="M408.833,260.79l-12.58-7.262c-1.011-.585-.882-1.6.282-2.276l12.467-7.2a4.382,4.382,0,0,1,3.94-.164l12.58,7.264c1.011.582.885,1.6-.282,2.274l-12.465,7.2A4.372,4.372,0,0,1,408.833,260.79Z" transform="translate(-290.986 -156.888)" fill="#173d7a"/>
            <path id="Path_203" data-name="Path 203" d="M416.541,265.24l-12.58-7.262c-1.011-.585-.885-1.6.282-2.276l12.465-7.2a4.387,4.387,0,0,1,3.942-.164l12.581,7.264c1.011.582.882,1.6-.282,2.274l-12.467,7.2A4.373,4.373,0,0,1,416.541,265.24Z" transform="translate(-279.265 -150.121)" fill="#173d7a"/>
            <path id="Path_204" data-name="Path 204" d="M424.249,269.69l-12.58-7.262c-1.011-.585-.885-1.6.282-2.276l12.464-7.2a4.388,4.388,0,0,1,3.942-.164l12.58,7.265c1.011.582.882,1.6-.282,2.274l-12.467,7.2A4.374,4.374,0,0,1,424.249,269.69Z" transform="translate(-267.544 -143.354)" fill="#173d7a"/>
            <path id="Path_205" data-name="Path 205" d="M431.955,274.143l-12.58-7.264c-1.008-.585-.882-1.6.285-2.276l12.465-7.2a4.382,4.382,0,0,1,3.94-.164l12.583,7.264c1.008.582.882,1.6-.285,2.274l-12.465,7.2A4.387,4.387,0,0,1,431.955,274.143Z" transform="translate(-255.823 -136.587)" fill="#173d7a"/>
            <path id="Path_206" data-name="Path 206" d="M439.664,278.59l-12.58-7.262c-1.011-.582-.882-1.6.282-2.276l12.467-7.2a4.382,4.382,0,0,1,3.94-.164l12.581,7.264c1.011.582.885,1.6-.282,2.274l-12.464,7.2A4.379,4.379,0,0,1,439.664,278.59Z" transform="translate(-244.103 -129.821)" fill="#173d7a"/>
            <path id="Path_207" data-name="Path 207" d="M447.372,283.043l-12.581-7.264c-1.011-.582-.885-1.6.282-2.276l12.465-7.2a4.387,4.387,0,0,1,3.942-.164l12.581,7.264c1.011.582.885,1.6-.282,2.276l-12.467,7.2A4.382,4.382,0,0,1,447.372,283.043Z" transform="translate(-232.383 -123.054)" fill="#173d7a"/>
            <path id="Path_208" data-name="Path 208" d="M455.08,287.493l-12.58-7.264c-1.011-.582-.885-1.6.282-2.276l12.464-7.2a4.387,4.387,0,0,1,3.942-.164l12.58,7.264c1.011.582.882,1.6-.282,2.276l-12.467,7.2A4.382,4.382,0,0,1,455.08,287.493Z" transform="translate(-220.661 -116.287)" fill="#173d7a"/>
            <path id="Path_209" data-name="Path 209" d="M462.786,291.943l-12.581-7.265c-1.008-.582-.882-1.6.285-2.274l12.465-7.2a4.374,4.374,0,0,1,3.94-.161l12.583,7.262c1.008.582.882,1.6-.285,2.276l-12.465,7.2A4.387,4.387,0,0,1,462.786,291.943Z" transform="translate(-208.941 -109.52)" fill="#173d7a"/>
            <path id="Path_210" data-name="Path 210" d="M404.775,249.783l-12.583-7.262c-1.008-.585-.882-1.6.285-2.276l12.465-7.2a4.387,4.387,0,0,1,3.942-.164l12.58,7.264c1.008.582.882,1.6-.285,2.274l-12.465,7.2A4.367,4.367,0,0,1,404.775,249.783Z" transform="translate(-297.157 -173.625)" fill="#396caa"/>
            <path id="Path_211" data-name="Path 211" d="M396.952,245.269,384.372,238c-1.011-.582-.885-1.6.282-2.274l12.464-7.2a4.388,4.388,0,0,1,3.942-.164l12.581,7.265c1.011.582.882,1.6-.282,2.276l-12.467,7.2A4.382,4.382,0,0,1,396.952,245.269Z" transform="translate(-309.053 -180.494)" fill="#396caa"/>
            <path id="Path_212" data-name="Path 212" d="M397.872,245.8l-27.094-15.643c-1.011-.585-.885-1.6.282-2.276l12.464-7.2a4.387,4.387,0,0,1,3.942-.164l27.094,15.643c1.011.585.885,1.6-.282,2.276l-12.465,7.2A4.387,4.387,0,0,1,397.872,245.8Z" transform="translate(-329.725 -192.428)" fill="#173d7a"/>
            <path id="Path_213" data-name="Path 213" d="M400.268,238.518l-21.988-12.694c-1.011-.585-.885-1.6.282-2.276l12.465-7.2a4.387,4.387,0,0,1,3.942-.164l21.988,12.7c1.011.582.885,1.6-.282,2.274l-12.465,7.2A4.379,4.379,0,0,1,400.268,238.518Z" transform="translate(-318.315 -199.016)" fill="#173d7a"/>
            <path id="Path_214" data-name="Path 214" d="M412.482,254.233l-12.58-7.262c-1.011-.585-.882-1.6.282-2.276l12.467-7.2a4.382,4.382,0,0,1,3.94-.164l12.58,7.264c1.011.582.885,1.6-.282,2.274l-12.465,7.2A4.372,4.372,0,0,1,412.482,254.233Z" transform="translate(-285.437 -166.859)" fill="#396caa"/>
            <path id="Path_215" data-name="Path 215" d="M420.19,258.683l-12.581-7.262c-1.011-.585-.882-1.6.282-2.276l12.467-7.2a4.382,4.382,0,0,1,3.94-.164l12.58,7.264c1.011.582.885,1.6-.282,2.274l-12.464,7.2A4.379,4.379,0,0,1,420.19,258.683Z" transform="translate(-273.716 -160.092)" fill="#173d7a"/>
            <path id="Path_216" data-name="Path 216" d="M427.9,263.133l-12.58-7.262c-1.011-.582-.885-1.6.282-2.276l12.465-7.2a4.387,4.387,0,0,1,3.942-.164l12.581,7.264c1.011.582.882,1.6-.282,2.276l-12.467,7.2A4.373,4.373,0,0,1,427.9,263.133Z" transform="translate(-261.995 -153.325)" fill="#173d7a"/>
            <path id="Path_217" data-name="Path 217" d="M435.606,267.586l-12.583-7.264c-1.008-.582-.882-1.6.285-2.276l12.464-7.2a4.387,4.387,0,0,1,3.942-.164l12.58,7.265c1.008.582.882,1.6-.285,2.276l-12.465,7.2A4.382,4.382,0,0,1,435.606,267.586Z" transform="translate(-250.275 -146.558)" fill="#173d7a"/>
            <path id="Path_218" data-name="Path 218" d="M443.312,272.036l-12.581-7.264c-1.008-.582-.882-1.6.285-2.276l12.464-7.2a4.383,4.383,0,0,1,3.94-.164L460,262.4c1.011.582.885,1.6-.282,2.276l-12.465,7.2A4.387,4.387,0,0,1,443.312,272.036Z" transform="translate(-238.554 -139.791)" fill="#173d7a"/>
            <path id="Path_219" data-name="Path 219" d="M451.021,276.486l-12.581-7.264c-1.011-.582-.882-1.6.283-2.276l12.467-7.2a4.382,4.382,0,0,1,3.94-.164l12.581,7.265c1.011.582.885,1.6-.282,2.276l-12.465,7.2A4.388,4.388,0,0,1,451.021,276.486Z" transform="translate(-226.833 -133.025)" fill="#173d7a"/>
            <path id="Path_220" data-name="Path 220" d="M458.729,280.936l-12.581-7.264c-1.011-.582-.885-1.6.282-2.276l12.464-7.2a4.379,4.379,0,0,1,3.942-.161l12.581,7.262c1.011.585.882,1.6-.282,2.276l-12.467,7.2A4.381,4.381,0,0,1,458.729,280.936Z" transform="translate(-215.113 -126.258)" fill="#173d7a"/>
            <path id="Path_221" data-name="Path 221" d="M466.437,285.386l-12.581-7.264c-1.011-.582-.885-1.6.282-2.274l12.464-7.2a4.379,4.379,0,0,1,3.942-.161l12.581,7.262c1.008.582.882,1.6-.285,2.276l-12.465,7.2A4.383,4.383,0,0,1,466.437,285.386Z" transform="translate(-203.392 -119.491)" fill="#173d7a"/>
            <path id="Path_222" data-name="Path 222" d="M474.143,289.836l-12.581-7.264c-1.008-.582-.882-1.6.285-2.274l12.464-7.2a4.366,4.366,0,0,1,3.94-.164l12.58,7.262c1.011.585.885,1.6-.282,2.276l-12.464,7.2A4.387,4.387,0,0,1,474.143,289.836Z" transform="translate(-191.671 -112.724)" fill="#173d7a"/>
            <path id="Path_223" data-name="Path 223" d="M496.817,302.925l-27.45-15.847c-1.011-.585-.885-1.6.282-2.276l12.467-7.2a4.382,4.382,0,0,1,3.94-.164l27.45,15.85c1.011.582.885,1.6-.282,2.274l-12.465,7.2A4.38,4.38,0,0,1,496.817,302.925Z" transform="translate(-179.805 -105.872)" fill="#173d7a"/>
            <path id="Path_224" data-name="Path 224" d="M509.24,292.769l-23.17-13.375c-1.008-.585-.882-1.6.285-2.276l12.464-7.2a4.382,4.382,0,0,1,3.94-.164l23.17,13.377c1.011.582.885,1.6-.282,2.274l-12.465,7.2A4.378,4.378,0,0,1,509.24,292.769Z" transform="translate(-154.403 -117.555)" fill="#173d7a"/>
            <path id="Path_225" data-name="Path 225" d="M425.98,253.365,413.4,246.1c-1.011-.582-.882-1.6.282-2.276l12.467-7.2a4.382,4.382,0,0,1,3.94-.164l12.58,7.264c1.011.582.885,1.6-.282,2.276l-12.465,7.2A4.388,4.388,0,0,1,425.98,253.365Z" transform="translate(-264.912 -168.183)" fill="#173d7a"/>
            <path id="Path_226" data-name="Path 226" d="M418.081,248.8,405.5,241.539c-1.011-.582-.885-1.6.282-2.274l12.465-7.2a4.379,4.379,0,0,1,3.942-.161l12.58,7.262c1.011.585.882,1.6-.282,2.276l-12.467,7.2A4.382,4.382,0,0,1,418.081,248.8Z" transform="translate(-276.924 -175.118)" fill="#173d7a"/>
            <path id="Path_227" data-name="Path 227" d="M410.181,244.243l-12.58-7.262c-1.011-.585-.882-1.6.282-2.276l12.467-7.2a4.366,4.366,0,0,1,3.94-.164l12.581,7.262c1.011.585.885,1.6-.282,2.276l-12.465,7.2A4.387,4.387,0,0,1,410.181,244.243Z" transform="translate(-288.936 -182.054)" fill="#396caa"/>
            <path id="Path_228" data-name="Path 228" d="M402.282,239.68l-12.58-7.262c-1.011-.585-.885-1.6.282-2.276l12.464-7.2a4.387,4.387,0,0,1,3.942-.164l12.58,7.264c1.011.582.882,1.6-.282,2.274l-12.467,7.2A4.366,4.366,0,0,1,402.282,239.68Z" transform="translate(-300.948 -188.988)" fill="#173d7a"/>
            <path id="Path_229" data-name="Path 229" d="M433.688,257.815l-12.58-7.264c-1.011-.582-.885-1.6.282-2.276l12.467-7.2a4.381,4.381,0,0,1,3.94-.164l12.58,7.264c1.011.582.885,1.6-.282,2.276l-12.467,7.2A4.382,4.382,0,0,1,433.688,257.815Z" transform="translate(-253.191 -161.416)" fill="#173d7a"/>
            <path id="Path_230" data-name="Path 230" d="M441.4,262.265,428.816,255c-1.011-.582-.885-1.6.282-2.274l12.464-7.2a4.379,4.379,0,0,1,3.942-.161l12.58,7.262c1.011.582.882,1.6-.282,2.276l-12.467,7.2A4.382,4.382,0,0,1,441.4,262.265Z" transform="translate(-241.47 -154.649)" fill="#173d7a"/>
            <path id="Path_231" data-name="Path 231" d="M449.1,266.715l-12.583-7.264c-1.008-.582-.882-1.6.285-2.274l12.465-7.2a4.379,4.379,0,0,1,3.942-.161l12.58,7.262c1.008.585.882,1.6-.285,2.276l-12.465,7.2A4.382,4.382,0,0,1,449.1,266.715Z" transform="translate(-229.749 -147.882)" fill="#173d7a"/>
            <path id="Path_232" data-name="Path 232" d="M456.811,271.165,444.23,263.9c-1.011-.582-.882-1.6.282-2.274l12.467-7.2a4.374,4.374,0,0,1,3.94-.161l12.58,7.262c1.011.585.885,1.6-.282,2.276L460.753,271A4.387,4.387,0,0,1,456.811,271.165Z" transform="translate(-218.029 -141.116)" fill="#173d7a"/>
            <path id="Path_233" data-name="Path 233" d="M464.519,275.615l-12.58-7.264c-1.011-.582-.885-1.6.282-2.274l12.467-7.2a4.374,4.374,0,0,1,3.94-.161l12.58,7.262c1.011.585.885,1.6-.282,2.276l-12.464,7.2A4.388,4.388,0,0,1,464.519,275.615Z" transform="translate(-206.308 -134.349)" fill="#173d7a"/>
            <path id="Path_234" data-name="Path 234" d="M472.227,280.064,459.647,272.8c-1.011-.585-.885-1.6.282-2.276l12.465-7.2a4.372,4.372,0,0,1,3.942-.164l12.58,7.262c1.011.585.882,1.6-.282,2.276l-12.467,7.2A4.381,4.381,0,0,1,472.227,280.064Z" transform="translate(-194.587 -127.582)" fill="#173d7a"/>
            <path id="Path_235" data-name="Path 235" d="M479.935,284.514l-12.583-7.264c-1.008-.582-.882-1.6.285-2.274l12.465-7.2a4.38,4.38,0,0,1,3.942-.164l12.58,7.264c1.008.582.882,1.6-.285,2.274l-12.464,7.2A4.375,4.375,0,0,1,479.935,284.514Z" transform="translate(-182.866 -120.814)" fill="#173d7a"/>
            <path id="Path_236" data-name="Path 236" d="M487.642,288.963,475.061,281.7c-1.011-.585-.882-1.6.282-2.276l12.467-7.2a4.382,4.382,0,0,1,3.94-.164l12.581,7.264c1.011.582.885,1.6-.283,2.274l-12.464,7.2A4.372,4.372,0,0,1,487.642,288.963Z" transform="translate(-171.146 -114.047)" fill="#173d7a"/>
            <path id="Path_237" data-name="Path 237" d="M495.35,293.413l-12.581-7.262c-1.011-.585-.882-1.6.282-2.276l12.467-7.2a4.382,4.382,0,0,1,3.94-.164l12.58,7.264c1.011.582.885,1.6-.282,2.273l-12.465,7.2A4.372,4.372,0,0,1,495.35,293.413Z" transform="translate(-159.425 -107.28)" fill="#173d7a"/>
            <path id="Path_238" data-name="Path 238" d="M421.922,242.358l-12.58-7.264c-1.011-.582-.885-1.6.282-2.276l12.465-7.2a4.387,4.387,0,0,1,3.942-.164l12.581,7.264c1.008.582.882,1.6-.285,2.276l-12.465,7.2A4.382,4.382,0,0,1,421.922,242.358Z" transform="translate(-271.083 -184.921)" fill="#173d7a"/>
            <path id="Path_239" data-name="Path 239" d="M414.252,237.93l-12.58-7.264c-1.011-.582-.882-1.6.282-2.276l12.467-7.2a4.382,4.382,0,0,1,3.94-.164l12.581,7.264c1.011.582.885,1.6-.282,2.276l-12.465,7.2A4.387,4.387,0,0,1,414.252,237.93Z" transform="translate(-282.746 -191.654)" fill="#173d7a"/>
            <path id="Path_240" data-name="Path 240" d="M406.583,233.5,394,226.237c-1.011-.582-.885-1.6.282-2.276l12.465-7.2a4.387,4.387,0,0,1,3.942-.164l12.581,7.264c1.011.585.882,1.6-.282,2.276l-12.467,7.2A4.382,4.382,0,0,1,406.583,233.5Z" transform="translate(-294.408 -198.388)" fill="#173d7a"/>
            <path id="Path_241" data-name="Path 241" d="M398.912,229.074l-12.581-7.264c-1.008-.582-.882-1.6.285-2.276l12.465-7.2a4.382,4.382,0,0,1,3.94-.164l12.581,7.264c1.011.585.885,1.6-.282,2.276l-12.464,7.2A4.387,4.387,0,0,1,398.912,229.074Z" transform="translate(-306.07 -205.121)" fill="#173d7a"/>
            <path id="Path_242" data-name="Path 242" d="M406.8,221.615l-12.58-7.264c-1.011-.582-.885-1.6.282-2.276l4.121-2.379a4.374,4.374,0,0,1,3.94-.161l12.58,7.262c1.011.585.885,1.6-.282,2.276l-4.121,2.379A4.382,4.382,0,0,1,406.8,221.615Z" transform="translate(-294.078 -209.138)" fill="#173d7a"/>
            <path id="Path_243" data-name="Path 243" d="M416.807,227.391l-12.581-7.264c-1.008-.582-.882-1.6.285-2.274l4.119-2.38a4.388,4.388,0,0,1,3.942-.164l12.581,7.265c1.011.582.882,1.6-.283,2.274l-4.121,2.379A4.387,4.387,0,0,1,416.807,227.391Z" transform="translate(-278.858 -200.351)" fill="#173d7a"/>
            <path id="Path_244" data-name="Path 244" d="M424.446,231.8l-12.58-7.262c-1.011-.582-.885-1.6.282-2.276l4.121-2.379a4.374,4.374,0,0,1,3.94-.161l12.581,7.262c1.011.582.885,1.6-.282,2.276l-4.121,2.379A4.373,4.373,0,0,1,424.446,231.8Z" transform="translate(-267.245 -193.646)" fill="#173d7a"/>
            <path id="Path_245" data-name="Path 245" d="M432.082,236.21l-12.58-7.265c-1.008-.582-.882-1.6.285-2.274l4.119-2.379a4.387,4.387,0,0,1,3.942-.164l12.58,7.264c1.011.582.882,1.6-.282,2.274l-4.121,2.379A4.388,4.388,0,0,1,432.082,236.21Z" transform="translate(-255.63 -186.94)" fill="#173d7a"/>
            <path id="Path_246" data-name="Path 246" d="M439.721,240.619l-12.58-7.262c-1.011-.585-.885-1.6.282-2.276l4.121-2.38a4.374,4.374,0,0,1,3.94-.161l12.581,7.262c1.011.582.885,1.6-.282,2.276l-4.121,2.379A4.374,4.374,0,0,1,439.721,240.619Z" transform="translate(-244.017 -180.236)" fill="#173d7a"/>
            <path id="Path_247" data-name="Path 247" d="M482.361,265.238l-12.583-7.265c-1.008-.582-.882-1.6.285-2.274l4.121-2.379a4.382,4.382,0,0,1,3.94-.164L490.7,260.42c1.011.582.885,1.6-.282,2.274l-4.121,2.379A4.383,4.383,0,0,1,482.361,265.238Z" transform="translate(-179.179 -142.801)" fill="#173d7a"/>
            <path id="Path_248" data-name="Path 248" d="M490,269.647l-12.581-7.262c-1.011-.585-.885-1.6.282-2.276l4.121-2.379a4.382,4.382,0,0,1,3.94-.164l12.583,7.264c1.008.585.882,1.6-.285,2.276l-4.121,2.38A4.374,4.374,0,0,1,490,269.647Z" transform="translate(-167.565 -136.096)" fill="#173d7a"/>
            <path id="Path_249" data-name="Path 249" d="M497.633,274.056l-12.58-7.264c-1.008-.582-.882-1.6.285-2.274l4.119-2.379a4.387,4.387,0,0,1,3.942-.164l12.58,7.265c1.011.582.882,1.6-.282,2.274l-4.121,2.379A4.388,4.388,0,0,1,497.633,274.056Z" transform="translate(-155.951 -129.39)" fill="#173d7a"/>
            <path id="Path_250" data-name="Path 250" d="M505.272,278.465,492.692,271.2c-1.011-.585-.885-1.6.282-2.276l4.121-2.379a4.382,4.382,0,0,1,3.94-.164l12.58,7.264c1.011.585.885,1.6-.282,2.276l-4.121,2.38A4.373,4.373,0,0,1,505.272,278.465Z" transform="translate(-144.338 -122.686)" fill="#173d7a"/>
            <path id="Path_251" data-name="Path 251" d="M429.628,246.808l-12.581-7.264c-1.008-.582-.882-1.6.285-2.276l12.464-7.2a4.382,4.382,0,0,1,3.94-.164l12.581,7.264c1.011.582.885,1.6-.282,2.276l-12.464,7.2A4.387,4.387,0,0,1,429.628,246.808Z" transform="translate(-259.362 -178.154)" fill="#173d7a"/>
            <path id="Path_252" data-name="Path 252" d="M437.337,251.258l-12.581-7.264c-1.011-.582-.882-1.6.282-2.276l12.467-7.2a4.373,4.373,0,0,1,3.94-.161l12.581,7.262c1.011.585.885,1.6-.282,2.276l-12.465,7.2A4.387,4.387,0,0,1,437.337,251.258Z" transform="translate(-247.642 -171.387)" fill="#173d7a"/>
            <path id="Path_253" data-name="Path 253" d="M445.045,255.708l-12.581-7.264c-1.011-.582-.885-1.6.282-2.274l12.464-7.2a4.379,4.379,0,0,1,3.943-.161l12.58,7.262c1.011.585.882,1.6-.282,2.276l-12.467,7.2A4.382,4.382,0,0,1,445.045,255.708Z" transform="translate(-235.921 -164.62)" fill="#173d7a"/>
            <path id="Path_254" data-name="Path 254" d="M452.753,260.158l-12.581-7.264c-1.011-.582-.885-1.6.282-2.274l12.464-7.2a4.371,4.371,0,0,1,3.942-.164l12.581,7.262c1.008.585.882,1.6-.285,2.276l-12.464,7.2A4.383,4.383,0,0,1,452.753,260.158Z" transform="translate(-224.2 -157.853)" fill="#173d7a"/>
            <path id="Path_255" data-name="Path 255" d="M460.459,264.608l-12.581-7.264c-1.008-.582-.882-1.6.285-2.274l12.465-7.2a4.373,4.373,0,0,1,3.94-.161l12.583,7.262c1.008.585.882,1.6-.285,2.276l-12.464,7.2A4.387,4.387,0,0,1,460.459,264.608Z" transform="translate(-212.479 -151.086)" fill="#173d7a"/>
            <path id="Path_256" data-name="Path 256" d="M468.168,269.057,455.587,261.8c-1.011-.585-.882-1.6.282-2.276l12.467-7.2a4.366,4.366,0,0,1,3.94-.164l12.581,7.262c1.011.585.885,1.6-.282,2.276l-12.464,7.2A4.387,4.387,0,0,1,468.168,269.057Z" transform="translate(-200.759 -144.319)" fill="#173d7a"/>
            <path id="Path_257" data-name="Path 257" d="M475.876,273.507,463.3,266.245c-1.011-.585-.885-1.6.282-2.276l12.465-7.2a4.38,4.38,0,0,1,3.942-.164l12.581,7.264c1.011.582.885,1.6-.283,2.274l-12.467,7.2A4.374,4.374,0,0,1,475.876,273.507Z" transform="translate(-189.038 -137.552)" fill="#173d7a"/>
            <path id="Path_258" data-name="Path 258" d="M483.584,277.956,471,270.694c-1.011-.585-.885-1.6.283-2.276l12.464-7.2a4.388,4.388,0,0,1,3.942-.164l12.581,7.265c1.011.582.882,1.6-.282,2.274l-12.467,7.2A4.367,4.367,0,0,1,483.584,277.956Z" transform="translate(-177.317 -130.785)" fill="#173d7a"/>
            <path id="Path_259" data-name="Path 259" d="M491.29,282.406l-12.581-7.262c-1.008-.585-.882-1.6.285-2.276l12.464-7.2a4.383,4.383,0,0,1,3.94-.164l12.583,7.264c1.008.582.882,1.6-.285,2.274l-12.465,7.2A4.372,4.372,0,0,1,491.29,282.406Z" transform="translate(-165.596 -124.018)" fill="#173d7a"/>
            <path id="Path_260" data-name="Path 260" d="M400.326,255.879l-37.051-21.39c-1.011-.585-.885-1.6.282-2.276l12.465-7.2a4.379,4.379,0,0,1,3.942-.164l37.051,21.393c1.011.582.882,1.6-.282,2.273l-12.467,7.2A4.366,4.366,0,0,1,400.326,255.879Z" transform="translate(-341.134 -185.841)" fill="#173d7a"/>
            <path id="Path_261" data-name="Path 261" d="M495.018,310.549l-37.053-21.39c-1.008-.585-.882-1.6.285-2.276l12.465-7.2a4.382,4.382,0,0,1,3.94-.164l37.054,21.393c1.008.582.882,1.6-.285,2.274l-12.465,7.2A4.374,4.374,0,0,1,495.018,310.549Z" transform="translate(-197.142 -102.708)" fill="#173d7a"/>
            <path id="Path_262" data-name="Path 262" d="M449.43,294.891l-12.581-7.264c-1.011-.582-.882-1.6.282-2.276l14.852-8.573a4.382,4.382,0,0,1,3.94-.164l12.58,7.264c1.011.582.885,1.6-.282,2.276l-14.849,8.573A4.388,4.388,0,0,1,449.43,294.891Z" transform="translate(-229.253 -107.13)" fill="#173d7a"/>
            <path id="Path_263" data-name="Path 263" d="M398,265.2l-20.12-11.615c-1.011-.585-.882-1.6.282-2.276l14.852-8.573a4.366,4.366,0,0,1,3.94-.164l20.12,11.615c1.011.585.885,1.6-.282,2.276l-14.849,8.573A4.387,4.387,0,0,1,398,265.2Z" transform="translate(-318.917 -158.898)" fill="#173d7a"/>
            <path id="Path_264" data-name="Path 264" d="M446.553,293.229,426.43,281.611c-1.008-.582-.882-1.6.285-2.274l14.849-8.575a4.374,4.374,0,0,1,3.94-.161l20.122,11.615c1.008.582.882,1.6-.285,2.276l-14.849,8.573A4.382,4.382,0,0,1,446.553,293.229Z" transform="translate(-245.094 -116.276)" fill="#173d7a"/>
            <path id="Path_265" data-name="Path 265" d="M409.125,271.621,389.006,260c-1.011-.582-.885-1.6.282-2.276l14.849-8.573a4.388,4.388,0,0,1,3.942-.164l20.12,11.618c1.011.582.882,1.6-.282,2.276l-14.852,8.573A4.382,4.382,0,0,1,409.125,271.621Z" transform="translate(-302.007 -149.134)" fill="#173d7a"/>
            <path id="Path_266" data-name="Path 266" d="M407.722,248.786l87.476,50.5a1.2,1.2,0,0,1,0,2.269L480.054,310.3a4.352,4.352,0,0,1-3.93,0L388.648,259.8Z" transform="translate(-301.512 -148.848)" fill="#173d7a"/>
            <path id="Path_267" data-name="Path 267" d="M469.061,291.891l14.015,8.091c.827.479.723,1.313-.232,1.865l-6.075,3.506a3.59,3.59,0,0,1-3.231.134L459.526,297.4c-.829-.476-.726-1.311.232-1.863l6.075-3.509A3.584,3.584,0,0,1,469.061,291.891Z" transform="translate(-194.585 -83.793)" fill="#173d7a"/>
            <path id="Path_268" data-name="Path 268" d="M461.288,287.4l14.015,8.091c.827.479.723,1.313-.232,1.865L469,300.866a3.585,3.585,0,0,1-3.229.134l-14.015-8.089c-.827-.479-.723-1.313.232-1.865l6.075-3.509A3.592,3.592,0,0,1,461.288,287.4Z" transform="translate(-206.402 -90.615)" fill="#173d7a"/>
            <path id="Path_269" data-name="Path 269" d="M453.583,282.954l14.012,8.091c.829.479.726,1.313-.232,1.865l-6.075,3.506a3.585,3.585,0,0,1-3.229.134l-14.015-8.091c-.827-.476-.723-1.311.232-1.863l6.075-3.509A3.59,3.59,0,0,1,453.583,282.954Z" transform="translate(-218.123 -97.383)" fill="#173d7a"/>
            <path id="Path_270" data-name="Path 270" d="M465.547,284.947l14.012,8.091c.829.476.726,1.311-.232,1.863l-6.075,3.509a3.584,3.584,0,0,1-3.229.134l-14.015-8.091c-.827-.479-.723-1.313.232-1.865l6.075-3.506A3.59,3.59,0,0,1,465.547,284.947Z" transform="translate(-199.93 -94.352)" fill="#173d7a"/>
          </g>
        </g>
        <g id="Group_92" data-name="Group 92" transform="translate(354.019 174.546)">
          <g id="Group_91" data-name="Group 91">
            <path id="Path_271" data-name="Path 271" d="M476.235,182.786,464.2,175.839a4.972,4.972,0,0,1-2.067-3.882h0c-.023-1.5.862-2.193,1.979-1.548l12.031,6.947a4.971,4.971,0,0,1,2.067,3.882h0C478.236,182.738,477.352,183.431,476.235,182.786Z" transform="translate(-433.475 -153.62)" fill="#d4ecff"/>
            <path id="Path_272" data-name="Path 272" d="M491.05,191.339,473.308,181.1a4.969,4.969,0,0,1-2.064-3.882h0c-.025-1.5.862-2.19,1.976-1.548l17.743,10.244a4.972,4.972,0,0,1,2.067,3.882h0C493.052,191.291,492.167,191.984,491.05,191.339Z" transform="translate(-419.628 -145.625)" fill="#d4ecff"/>
            <path id="Path_273" data-name="Path 273" d="M473.87,208.242l-12.033-6.947a4.976,4.976,0,0,1-2.064-3.882h0c-.025-1.5.862-2.193,1.979-1.548l12.031,6.947a4.971,4.971,0,0,1,2.067,3.882h0C475.871,208.194,474.987,208.887,473.87,208.242Z" transform="translate(-437.071 -114.911)" fill="#d4ecff"/>
            <path id="Path_274" data-name="Path 274" d="M487.45,216.081l-17.743-10.244a4.972,4.972,0,0,1-2.064-3.882h0c-.025-1.5.862-2.19,1.979-1.545l17.74,10.241a4.976,4.976,0,0,1,2.067,3.882h0C489.452,216.033,488.567,216.727,487.45,216.081Z" transform="translate(-425.102 -108)" fill="#d4ecff"/>
            <path id="Path_275" data-name="Path 275" d="M460.423,178.125l-7.517-4.341a4.968,4.968,0,0,1-2.067-3.882h0c-.023-1.5.862-2.19,1.979-1.545l7.517,4.338a4.962,4.962,0,0,1,2.064,3.882h0C462.424,178.077,461.539,178.77,460.423,178.125Z" transform="translate(-450.655 -156.741)" fill="#d4ecff"/>
            <path id="Path_276" data-name="Path 276" d="M479.924,193.857,456.959,180.6a4.962,4.962,0,0,1-2.064-3.882h0c-.025-1.5.859-2.19,1.976-1.545l22.966,13.259a4.972,4.972,0,0,1,2.067,3.882h0C481.926,193.809,481.041,194.5,479.924,193.857Z" transform="translate(-444.489 -146.384)" fill="#d4ecff"/>
            <path id="Path_277" data-name="Path 277" d="M464.621,193.962l-7.517-4.341a4.962,4.962,0,0,1-2.064-3.882h0c-.025-1.5.86-2.19,1.976-1.548l7.517,4.341a4.972,4.972,0,0,1,2.067,3.882h0C466.622,193.914,465.738,194.607,464.621,193.962Z" transform="translate(-444.267 -132.66)" fill="#d4ecff"/>
            <path id="Path_278" data-name="Path 278" d="M492.379,227.869,472.3,216.276a4.958,4.958,0,0,1-2.064-3.882h0c-.025-1.5.859-2.19,1.976-1.548l20.077,11.592a4.963,4.963,0,0,1,2.064,3.882h0C494.38,227.821,493.5,228.514,492.379,227.869Z" transform="translate(-421.157 -92.128)" fill="#d4ecff"/>
            <path id="Path_279" data-name="Path 279" d="M462.078,201.431l-4.827-2.785a4.976,4.976,0,0,1-2.064-3.882h0c-.025-1.5.862-2.19,1.979-1.548L461.99,196a4.965,4.965,0,0,1,2.064,3.879h0C464.079,201.384,463.194,202.077,462.078,201.431Z" transform="translate(-444.045 -118.937)" fill="#d4ecff"/>
            <path id="Path_280" data-name="Path 280" d="M463.391,211.132l-5.991-3.461a4.972,4.972,0,0,1-2.067-3.882h0c-.023-1.5.862-2.19,1.979-1.548L463.3,205.7a4.962,4.962,0,0,1,2.064,3.882h0C465.392,211.082,464.507,211.775,463.391,211.132Z" transform="translate(-443.823 -105.213)" fill="#d4ecff"/>
            <path id="Path_281" data-name="Path 281" d="M478.554,219.886l-15.8-9.122a4.965,4.965,0,0,1-2.064-3.879h0c-.025-1.5.862-2.193,1.976-1.548l15.8,9.12a4.97,4.97,0,0,1,2.064,3.882h0C480.555,219.838,479.668,220.528,478.554,219.886Z" transform="translate(-435.675 -100.509)" fill="#d4ecff"/>
            <path id="Path_282" data-name="Path 282" d="M468.829,218.741l-11.358-6.556a4.963,4.963,0,0,1-2.064-3.882h0c-.025-1.5.859-2.193,1.976-1.548l11.358,6.559a4.957,4.957,0,0,1,2.064,3.879h0C470.83,218.693,469.945,219.386,468.829,218.741Z" transform="translate(-443.71 -98.351)" fill="#d4ecff"/>
            <path id="Path_283" data-name="Path 283" d="M491.505,227.382l-7.295-4.212a4.965,4.965,0,0,1-2.064-3.879h0c-.025-1.5.862-2.193,1.976-1.548l7.295,4.212a4.967,4.967,0,0,1,2.067,3.879h0C493.507,227.335,492.622,228.028,491.505,227.382Z" transform="translate(-403.048 -81.642)" fill="#d4ecff"/>
            <path id="Path_284" data-name="Path 284" d="M483.291,204.74l-20.077-11.59a4.962,4.962,0,0,1-2.065-3.882h0c-.025-1.5.86-2.193,1.976-1.548L483.2,199.313a4.957,4.957,0,0,1,2.065,3.879h0C485.293,204.692,484.408,205.385,483.291,204.74Z" transform="translate(-434.975 -127.296)" fill="#d4ecff"/>
            <path id="Path_285" data-name="Path 285" d="M492.023,205.31l-34.991-20.2a4.962,4.962,0,0,1-2.064-3.882h0c-.025-1.5.859-2.193,1.976-1.548l34.991,20.2A4.962,4.962,0,0,1,494,203.765h0C494.025,205.262,493.14,205.956,492.023,205.31Z" transform="translate(-444.378 -139.522)" fill="#d4ecff"/>
            <path id="Path_286" data-name="Path 286" d="M477.254,205.725l-20.077-11.59a4.969,4.969,0,0,1-2.064-3.882h0c-.025-1.5.862-2.193,1.976-1.548L477.166,200.3a4.967,4.967,0,0,1,2.067,3.879h0C479.256,205.677,478.371,206.37,477.254,205.725Z" transform="translate(-444.156 -125.799)" fill="#d4ecff"/>
            <path id="Path_287" data-name="Path 287" d="M481.621,203.775l-7.295-4.212a4.958,4.958,0,0,1-2.064-3.879h0c-.025-1.5.86-2.193,1.976-1.548l7.295,4.212a4.967,4.967,0,0,1,2.067,3.879h0C483.623,203.728,482.738,204.421,481.621,203.775Z" transform="translate(-418.078 -117.54)" fill="#d4ecff"/>
            <path id="Path_288" data-name="Path 288" d="M527.875,212.6l-43.2-24.939a4.958,4.958,0,0,1-2.064-3.882h0c-.025-1.5.859-2.19,1.976-1.545l43.2,24.939a4.968,4.968,0,0,1,2.067,3.882h0C529.876,212.551,528.992,213.244,527.875,212.6Z" transform="translate(-402.337 -135.642)" fill="#d4ecff"/>
            <path id="Path_289" data-name="Path 289" d="M481.459,217.092,457.326,203.16a4.976,4.976,0,0,1-2.067-3.882h0c-.023-1.5.862-2.193,1.979-1.548l24.133,13.934a4.963,4.963,0,0,1,2.064,3.882h0C483.46,217.044,482.575,217.737,481.459,217.092Z" transform="translate(-443.934 -112.075)" fill="#d4ecff"/>
            <path id="Path_290" data-name="Path 290" d="M470.576,179.518l-17.743-10.244a4.972,4.972,0,0,1-2.067-3.882h0c-.023-1.5.862-2.193,1.979-1.548l17.743,10.244a4.97,4.97,0,0,1,2.064,3.882h0C472.577,179.47,471.69,180.161,470.576,179.518Z" transform="translate(-450.766 -163.603)" fill="#d4ecff"/>
            <path id="Path_291" data-name="Path 291" d="M474.111,226.261,453.563,214.4a4.962,4.962,0,0,1-2.064-3.882h0c-.025-1.5.86-2.193,1.976-1.548l20.548,11.865a4.967,4.967,0,0,1,2.067,3.882h0C476.112,226.213,475.227,226.906,474.111,226.261Z" transform="translate(-449.653 -94.984)" fill="#d4ecff"/>
          </g>
        </g>
      </g>
      <g id="Group_100" data-name="Group 100" transform="translate(254.302 43.389)">
        <g id="Group_94" data-name="Group 94">
          <path id="Path_292" data-name="Path 292" d="M252.381,266.414l105.841-61.624c20.967-12.109,40.741-14.022,55.681-5.4s23.162,26.709,23.162,50.917v7.756c-.751.507-1.533,1-2.334,1.49V250.3c0-23.339-7.814-40.706-22-48.9s-33.131-6.269-53.347,5.4L253.548,268.435a1.167,1.167,0,0,1-1.167-2.022Z" transform="translate(-251.798 185.746)" fill="#d4ecff"/>
          <path id="Path_293" data-name="Path 293" d="M414.665,422.135V183.615c0-47.741,33.64-106.008,74.989-129.878C509.9,42.046,529,40.193,543.435,48.524S565.81,74.318,565.81,97.7v16.631l-2.334,2.334V97.7c0-22.514-7.532-39.261-21.209-47.156s-31.947-6.044-51.446,5.21C450.116,79.258,417,136.615,417,183.615v238.52c0,39.574-23.286,86.412-54.862,114.6V533.6C392.466,505.729,414.665,460.469,414.665,422.135Z" transform="translate(-84.01 -43.389)" fill="#d4ecff"/>
          <path id="Path_294" data-name="Path 294" d="M444.348,88.787h0c3.831-3.64,21.7-19.4,47.781-23.391,29.534-4.514,41.739,30.023,41.739,30.023s3.418,17.939,3.295,28.559-.882,49.178-.882,49.178l-93.624-53.934v-.013a1.159,1.159,0,0,1-.643-1.028V90.806C442.793,90.027,443.569,89.566,444.348,88.787Z" transform="translate(37.452 -10.543)" fill="#173d7a"/>
        </g>
        <g id="Group_98" data-name="Group 98" transform="translate(0.449 0.435)">
          <g id="Group_96" data-name="Group 96">
            <path id="Path_295" data-name="Path 295" d="M632.314,99.418,543.573,48.259l.348,1.275c-13.677-8.835-34.349-9.788-62,10.488C427,100.3,420.407,156.366,417.607,166.872s-1.648,77.071-1.648,77.071-.184,160.547-.365,179.22-5.618,39.622-16.109,62.242-37.436,50.067-37.436,50.067V568.15c4.3,35.332,19.313,43.569,41.646,45.586,18.025,1.623,37.23-11.391,52.575-25.574-.564.59-.93.965-.93.965V621.8c4.3,35.329,19.313,43.567,41.648,45.583s46.486-18.444,62.852-35.76,30.167-43.758,37.832-67.611,5.127-54.678,5.127-54.678.184-175.5.366-210.095,1.283-28.559,12.631-63.341,41.437-59.132,41.437-59.132l72.193-21.5Z" transform="translate(-84.598 -43.561)" fill="#d4ecff"/>
            <path id="Path_296" data-name="Path 296" d="M535.12,402.275c-1.218-1.654-17.029-12.258-21.057-30.928-2.241-10.39-2.014-26.179-2.014-26.179s.066-8.782.277-16.765c.176-.156.358-.3.534-.456v-3.131c-.146.134-.3.252-.439.383.06-1.8.129-3.493.207-4.928.459-8.3-5.674-26-5.674-26s-8.7-23.707-34.6-24.622c-23-.814-47.206,15.731-52.356,19.459V278.409c-.34.232-.711.454-1.064.681.028-1.434.06-2.9.1-4.341.176-.154.358-.3.534-.454v-3.131c-.144.131-.295.252-.439.383.061-1.8.129-3.493.209-4.928.456-8.3-5.676-26-5.676-26s-8.7-23.709-34.6-24.624c-23-.812-47.206,15.734-52.356,19.462V224.757c-.751.507-1.533,1-2.334,1.49v18.741c0,22.708,7.564,39.773,21.3,48.247l.055.063.479.277c.129.076.25.164.378.24.083.048.174.078.257.126l94.983,54.683c-.023-.033-.086-.088-.121-.126Z" transform="translate(-141.888 218.612)" fill="#173d7a"/>
            <g id="Group_95" data-name="Group 95" transform="translate(0 380.386)">
              <path id="Path_297" data-name="Path 297" d="M506.926,252.432s-.713-.365-1.966-.875c-.386-.187-.759-.4-1.149-.58l-90.178-52.2a48.4,48.4,0,0,0-36.61-1.371c-20.039,7.335-125.046,70.331-125.046,70.331l93.811,54.045.018-.01a1.041,1.041,0,0,0,.25.068l93.026,53.594s52.628-32.6,89.039-53.639l2.334-1.346c14.887-8.56,26.709-14.952,30.419-15.935,22.449-5.949,38.067,1.3,42.135,3.531Z" transform="translate(-251.976 -194.47)" fill="#d4ecff"/>
              <path id="Path_298" data-name="Path 298" d="M391.239,239.529l1.086.63S391.927,239.907,391.239,239.529Z" transform="translate(-40.208 -125.952)" fill="#d4ecff"/>
            </g>
          </g>
          <path id="Path_299" data-name="Path 299" d="M481.36,110.072h0c3.831-3.64,21.7-19.4,47.781-23.391C558.675,82.166,570.88,116.7,570.88,116.7s3.416,17.939,3.295,28.559-.882,49.178-.882,49.178l-93.624-53.934v-.013a1.156,1.156,0,0,1-.643-1.028V112.091C479.8,111.312,480.581,110.851,481.36,110.072Z" transform="translate(93.285 21.388)" fill="#173d7a"/>
          <g id="Group_97" data-name="Group 97" transform="translate(186.506 107.168)">
            <path id="Path_300" data-name="Path 300" d="M550.937,604.041c10.322,0,21.751-3.446,33.572-10.274,41.051-23.7,74.445-81.545,74.445-128.941V226.306c0-47,33.116-104.357,73.824-127.862,19.5-11.252,37.767-13.107,51.444-5.213s21.208,24.647,21.208,47.161v53.321a1.167,1.167,0,0,0,2.334,0V140.393c0-23.384-7.945-40.849-22.376-49.18s-33.53-6.478-53.778,5.213C690.261,120.3,656.62,178.563,656.62,226.306v238.52c0,46.654-32.872,103.59-73.277,126.922-19.348,11.169-37.484,13.011-51.06,5.172s-21.05-24.46-21.05-46.806V522.128c0-24.211-8.225-42.294-23.162-50.917s-34.709-6.7-55.678,5.4L326.551,538.24a1.166,1.166,0,0,0,1.167,2.019l105.841-61.625c20.213-11.671,39.161-13.591,53.344-5.4s22,25.554,22,48.9v27.987c0,23.215,7.89,40.555,22.217,48.827A39.151,39.151,0,0,0,550.937,604.041Z" transform="translate(-325.968 -86.078)" fill="#396caa"/>
          </g>
        </g>
        <path id="Path_301" data-name="Path 301" d="M429.177,174.8l-15.646-9.034a6.467,6.467,0,0,1-2.687-5.049h0c-.03-1.948,1.122-2.848,2.574-2.011l15.646,9.034a6.455,6.455,0,0,1,2.685,5.046h0C431.781,174.738,430.629,175.638,429.177,174.8Z" transform="translate(-9.947 131.492)" fill="#5793ce"/>
        <path id="Path_302" data-name="Path 302" d="M446.836,185l-23.072-13.322a6.457,6.457,0,0,1-2.685-5.046h0c-.033-1.951,1.119-2.851,2.571-2.014l23.071,13.322a6.452,6.452,0,0,1,2.684,5.046h0C449.44,184.935,448.288,185.834,446.836,185Z" transform="translate(5.618 140.478)" fill="#5793ce"/>
        <path id="Path_303" data-name="Path 303" d="M437.05,156.095l-29.865-17.244A6.452,6.452,0,0,1,404.5,133.8h0c-.033-1.948,1.119-2.851,2.571-2.011l29.864,17.241a6.457,6.457,0,0,1,2.685,5.049h0C439.654,156.032,438.5,156.932,437.05,156.095Z" transform="translate(-19.592 90.565)" fill="#5793ce"/>
        <path id="Path_304" data-name="Path 304" d="M417.151,156.232l-9.775-5.644a6.47,6.47,0,0,1-2.685-5.046h0c-.033-1.951,1.119-2.851,2.571-2.014l9.775,5.644a6.457,6.457,0,0,1,2.684,5.049h0C419.755,156.169,418.6,157.069,417.151,156.232Z" transform="translate(-19.303 108.411)" fill="#5793ce"/>
        <path id="Path_305" data-name="Path 305" d="M413.842,165.946l-6.274-3.622a6.466,6.466,0,0,1-2.687-5.049h0c-.03-1.948,1.119-2.848,2.571-2.011l6.274,3.622a6.467,6.467,0,0,1,2.687,5.049h0C416.443,165.883,415.294,166.783,413.842,165.946Z" transform="translate(-19.014 126.257)" fill="#5793ce"/>
        <path id="Path_306" data-name="Path 306" d="M441.429,170.247l-26.106-15.073a6.461,6.461,0,0,1-2.687-5.046h0c-.03-1.948,1.119-2.851,2.571-2.011l26.106,15.071A6.466,6.466,0,0,1,444,168.236h0C444.031,170.184,442.882,171.084,441.429,170.247Z" transform="translate(-7.222 115.387)" fill="#5793ce"/>
        <path id="Path_307" data-name="Path 307" d="M452.783,170.989l-45.5-26.27a6.452,6.452,0,0,1-2.685-5.046h0c-.033-1.951,1.119-2.851,2.571-2.012l45.5,26.27a6.461,6.461,0,0,1,2.687,5.046h0C455.384,170.926,454.235,171.829,452.783,170.989Z" transform="translate(-19.448 99.488)" fill="#5793ce"/>
        <path id="Path_308" data-name="Path 308" d="M433.58,171.529l-26.106-15.073a6.465,6.465,0,0,1-2.687-5.046h0c-.03-1.951,1.119-2.851,2.571-2.014l26.106,15.073a6.465,6.465,0,0,1,2.687,5.046h0C436.181,171.466,435.031,172.366,433.58,171.529Z" transform="translate(-19.159 117.334)" fill="#5793ce"/>
        <path id="Path_309" data-name="Path 309" d="M439.256,168.993l-9.485-5.475a6.457,6.457,0,0,1-2.685-5.049h0c-.033-1.948,1.119-2.848,2.571-2.012l9.485,5.477a6.451,6.451,0,0,1,2.685,5.046h0C441.86,168.932,440.708,169.832,439.256,168.993Z" transform="translate(14.751 128.072)" fill="#5793ce"/>
        <g id="Group_99" data-name="Group 99" transform="translate(371.38 184.929)">
          <path id="Path_310" data-name="Path 310" d="M432.253,141.7l-15.646-9.034a6.467,6.467,0,0,1-2.687-5.049h0c-.03-1.948,1.119-2.848,2.571-2.011l15.648,9.034a6.457,6.457,0,0,1,2.685,5.049h0C434.857,141.636,433.7,142.536,432.253,141.7Z" transform="translate(-376.649 -103.773)" fill="#5793ce"/>
          <path id="Path_311" data-name="Path 311" d="M451.517,152.822,428.446,139.5a6.452,6.452,0,0,1-2.685-5.046h0c-.033-1.951,1.119-2.851,2.571-2.011L451.4,145.762a6.456,6.456,0,0,1,2.684,5.046h0C454.121,152.759,452.969,153.659,451.517,152.822Z" transform="translate(-358.644 -93.378)" fill="#5793ce"/>
          <path id="Path_312" data-name="Path 312" d="M429.177,174.8l-15.646-9.034a6.467,6.467,0,0,1-2.687-5.049h0c-.03-1.948,1.122-2.848,2.574-2.011l15.646,9.034a6.455,6.455,0,0,1,2.685,5.046h0C431.781,174.738,430.629,175.638,429.177,174.8Z" transform="translate(-381.327 -53.437)" fill="#5793ce"/>
          <path id="Path_313" data-name="Path 313" d="M446.836,185l-23.072-13.322a6.457,6.457,0,0,1-2.685-5.046h0c-.033-1.951,1.119-2.851,2.571-2.014l23.071,13.322a6.452,6.452,0,0,1,2.684,5.046h0C449.44,184.935,448.288,185.834,446.836,185Z" transform="translate(-365.762 -44.452)" fill="#5793ce"/>
          <path id="Path_314" data-name="Path 314" d="M411.689,135.64,401.914,130a6.471,6.471,0,0,1-2.684-5.049h0c-.033-1.948,1.119-2.848,2.571-2.011l9.775,5.644a6.456,6.456,0,0,1,2.685,5.046h0C414.293,135.577,413.141,136.477,411.689,135.64Z" transform="translate(-398.989 -107.832)" fill="#5793ce"/>
          <path id="Path_315" data-name="Path 315" d="M437.05,156.095l-29.865-17.244A6.452,6.452,0,0,1,404.5,133.8h0c-.033-1.948,1.119-2.851,2.571-2.011l29.864,17.241a6.457,6.457,0,0,1,2.685,5.049h0C439.654,156.032,438.5,156.932,437.05,156.095Z" transform="translate(-390.972 -94.364)" fill="#5793ce"/>
          <path id="Path_316" data-name="Path 316" d="M417.151,156.232l-9.775-5.644a6.47,6.47,0,0,1-2.685-5.046h0c-.033-1.951,1.119-2.851,2.571-2.014l9.775,5.644a6.457,6.457,0,0,1,2.684,5.049h0C419.755,156.169,418.6,157.069,417.151,156.232Z" transform="translate(-390.683 -76.519)" fill="#5793ce"/>
          <path id="Path_317" data-name="Path 317" d="M453.245,200.322l-26.106-15.073a6.465,6.465,0,0,1-2.687-5.046h0c-.03-1.951,1.119-2.851,2.571-2.011l26.106,15.071a6.467,6.467,0,0,1,2.687,5.049h0C455.847,200.259,454.7,201.159,453.245,200.322Z" transform="translate(-360.634 -23.811)" fill="#5793ce"/>
          <path id="Path_318" data-name="Path 318" d="M413.842,165.946l-6.274-3.622a6.466,6.466,0,0,1-2.687-5.049h0c-.03-1.948,1.119-2.848,2.571-2.011l6.274,3.622a6.467,6.467,0,0,1,2.687,5.049h0C416.443,165.883,415.294,166.783,413.842,165.946Z" transform="translate(-390.394 -58.673)" fill="#5793ce"/>
          <path id="Path_319" data-name="Path 319" d="M415.55,178.557l-7.791-4.5a6.461,6.461,0,0,1-2.687-5.046h0c-.03-1.948,1.122-2.851,2.571-2.011l7.794,4.5a6.455,6.455,0,0,1,2.684,5.046h0C418.153,178.494,417,179.4,415.55,178.557Z" transform="translate(-390.106 -40.827)" fill="#5793ce"/>
          <path id="Path_320" data-name="Path 320" d="M435.266,189.942l-20.541-11.86a6.466,6.466,0,0,1-2.687-5.049h0c-.03-1.948,1.119-2.848,2.571-2.011l20.543,11.86a6.457,6.457,0,0,1,2.685,5.049h0C437.87,189.879,436.718,190.778,435.266,189.942Z" transform="translate(-379.511 -34.71)" fill="#5793ce"/>
          <path id="Path_321" data-name="Path 321" d="M422.622,188.454l-14.768-8.527a6.461,6.461,0,0,1-2.687-5.046h0c-.03-1.951,1.122-2.851,2.574-2.011l14.768,8.527a6.461,6.461,0,0,1,2.687,5.046h0C425.225,188.391,424.073,189.293,422.622,188.454Z" transform="translate(-389.961 -31.904)" fill="#5793ce"/>
          <path id="Path_322" data-name="Path 322" d="M441.429,170.247l-26.106-15.073a6.461,6.461,0,0,1-2.687-5.046h0c-.03-1.948,1.119-2.851,2.571-2.011l26.106,15.071A6.466,6.466,0,0,1,444,168.236h0C444.031,170.184,442.882,171.084,441.429,170.247Z" transform="translate(-378.602 -69.543)" fill="#5793ce"/>
          <path id="Path_323" data-name="Path 323" d="M452.783,170.989l-45.5-26.27a6.452,6.452,0,0,1-2.685-5.046h0c-.033-1.951,1.119-2.851,2.571-2.012l45.5,26.27a6.461,6.461,0,0,1,2.687,5.046h0C455.384,170.926,454.235,171.829,452.783,170.989Z" transform="translate(-390.828 -85.441)" fill="#5793ce"/>
          <path id="Path_324" data-name="Path 324" d="M433.58,171.529l-26.106-15.073a6.465,6.465,0,0,1-2.687-5.046h0c-.03-1.951,1.119-2.851,2.571-2.014l26.106,15.073a6.465,6.465,0,0,1,2.687,5.046h0C436.181,171.466,435.031,172.366,433.58,171.529Z" transform="translate(-390.539 -67.596)" fill="#5793ce"/>
          <path id="Path_325" data-name="Path 325" d="M439.256,168.993l-9.485-5.475a6.457,6.457,0,0,1-2.685-5.049h0c-.033-1.948,1.119-2.848,2.571-2.012l9.485,5.477a6.451,6.451,0,0,1,2.685,5.046h0C441.86,168.932,440.708,169.832,439.256,168.993Z" transform="translate(-356.629 -56.857)" fill="#5793ce"/>
          <path id="Path_326" data-name="Path 326" d="M439.045,186.311l-31.382-18.118a6.466,6.466,0,0,1-2.687-5.049h0c-.03-1.948,1.119-2.851,2.571-2.011l31.382,18.118a6.465,6.465,0,0,1,2.687,5.046h0C441.646,186.248,440.5,187.148,439.045,186.311Z" transform="translate(-390.25 -49.75)" fill="#5793ce"/>
          <path id="Path_327" data-name="Path 327" d="M424.89,137.447l-23.071-13.319a6.457,6.457,0,0,1-2.685-5.049h0c-.033-1.948,1.119-2.848,2.571-2.011l23.072,13.322a6.453,6.453,0,0,1,2.684,5.046h0C427.494,137.387,426.342,138.286,424.89,137.447Z" transform="translate(-399.134 -116.755)" fill="#5793ce"/>
          <path id="Path_328" data-name="Path 328" d="M429.491,198.234,402.77,182.805a6.452,6.452,0,0,1-2.685-5.046h0c-.033-1.949,1.119-2.851,2.571-2.011l26.721,15.426a6.457,6.457,0,0,1,2.684,5.049h0C432.095,198.171,430.943,199.071,429.491,198.234Z" transform="translate(-397.688 -27.526)" fill="#5793ce"/>
        </g>
        <path id="Path_329" data-name="Path 329" d="M427.718,230.485l-15.646-9.034a6.462,6.462,0,0,1-2.687-5.046h0c-.03-1.951,1.122-2.851,2.571-2.014l15.648,9.034a6.457,6.457,0,0,1,2.684,5.049h0C430.322,230.422,429.17,231.322,427.718,230.485Z" transform="translate(-12.165 216.167)" fill="#5793ce"/>
        <path id="Path_330" data-name="Path 330" d="M445.379,240.681l-23.071-13.322a6.462,6.462,0,0,1-2.687-5.046h0c-.03-1.949,1.122-2.851,2.574-2.011l23.071,13.319a6.472,6.472,0,0,1,2.684,5.049h0C447.982,240.618,446.831,241.52,445.379,240.681Z" transform="translate(3.398 225.154)" fill="#5793ce"/>
        <path id="Path_331" data-name="Path 331" d="M435.591,211.778l-29.864-17.241a6.457,6.457,0,0,1-2.685-5.049h0c-.033-1.948,1.119-2.848,2.571-2.011l29.865,17.244a6.452,6.452,0,0,1,2.684,5.046h0C438.2,211.715,437.043,212.617,435.591,211.778Z" transform="translate(-21.811 175.241)" fill="#5793ce"/>
        <path id="Path_332" data-name="Path 332" d="M415.692,211.915l-9.775-5.644a6.452,6.452,0,0,1-2.684-5.046h0c-.033-1.949,1.119-2.851,2.571-2.012l9.775,5.644a6.452,6.452,0,0,1,2.685,5.046h0C418.3,211.852,417.144,212.754,415.692,211.915Z" transform="translate(-21.522 193.087)" fill="#5793ce"/>
        <path id="Path_333" data-name="Path 333" d="M412.383,221.629l-6.276-3.622a6.466,6.466,0,0,1-2.685-5.046h0c-.033-1.951,1.119-2.851,2.571-2.011l6.274,3.622a6.461,6.461,0,0,1,2.687,5.046h0C414.984,221.566,413.833,222.469,412.383,221.629Z" transform="translate(-21.233 210.932)" fill="#5793ce"/>
        <path id="Path_334" data-name="Path 334" d="M439.971,225.931,413.862,210.86a6.457,6.457,0,0,1-2.684-5.049h0c-.033-1.948,1.119-2.848,2.571-2.011l26.106,15.073a6.461,6.461,0,0,1,2.687,5.046h0C442.572,225.87,441.42,226.77,439.971,225.931Z" transform="translate(-9.44 200.062)" fill="#5793ce"/>
        <path id="Path_335" data-name="Path 335" d="M451.322,226.675l-45.5-26.27a6.457,6.457,0,0,1-2.685-5.049h0c-.033-1.948,1.119-2.848,2.571-2.011l45.5,26.27a6.466,6.466,0,0,1,2.687,5.046h0C453.926,226.612,452.774,227.512,451.322,226.675Z" transform="translate(-21.666 184.164)" fill="#5793ce"/>
        <path id="Path_336" data-name="Path 336" d="M432.121,227.213l-26.109-15.073a6.453,6.453,0,0,1-2.684-5.046h0c-.033-1.951,1.119-2.851,2.571-2.012L432,220.155a6.461,6.461,0,0,1,2.687,5.046h0C434.722,227.15,433.57,228.05,432.121,227.213Z" transform="translate(-21.377 202.009)" fill="#5793ce"/>
        <path id="Path_337" data-name="Path 337" d="M437.8,224.678l-9.485-5.477a6.462,6.462,0,0,1-2.687-5.046h0c-.03-1.948,1.122-2.851,2.574-2.011l9.485,5.475a6.457,6.457,0,0,1,2.684,5.049h0C440.4,224.615,439.25,225.515,437.8,224.678Z" transform="translate(12.531 212.748)" fill="#5793ce"/>
      </g>
      <g id="Group_106" data-name="Group 106" transform="translate(784.238 589.472)">
        <path id="Path_338" data-name="Path 338" d="M462.037,360.294l28.979-16.731,28.979,16.731-28.979,16.731Z" transform="translate(-462.037 -133.016)" fill="#d4ecff"/>
        <path id="Path_339" data-name="Path 339" d="M486.441,346.016l28.979-16.731L544.4,346.016,515.42,362.746Z" transform="translate(-424.928 -154.728)" fill="#d4ecff"/>
        <path id="Path_340" data-name="Path 340" d="M510.77,332.078l28.979-16.731,28.979,16.731L539.75,348.809Z" transform="translate(-387.931 -175.922)" fill="#d4ecff"/>
        <g id="Group_105" data-name="Group 105">
          <g id="Group_104" data-name="Group 104">
            <g id="Group_101" data-name="Group 101" transform="translate(61.513 85.325)">
              <path id="Path_341" data-name="Path 341" d="M515.42,399.847V310.615l-28.979-16.731v89.232Z" transform="translate(-486.441 -293.884)" fill="#c13d1a"/>
              <path id="Path_342" data-name="Path 342" d="M497.937,310.615l28.979-16.731v89.232l-28.979,16.731Z" transform="translate(-468.958 -293.884)" fill="#d3008d"/>
              <path id="Path_343" data-name="Path 343" d="M515.42,399.847V310.615l-28.979-16.731v89.232Z" transform="translate(-486.441 -293.884)" fill="#d3008d"/>
            </g>
            <g id="Group_102" data-name="Group 102" transform="translate(0 143.622)">
              <path id="Path_344" data-name="Path 344" d="M491.016,390.574V340.381L462.037,323.65v50.193Z" transform="translate(-462.037 -306.919)" fill="#d3008d"/>
              <path id="Path_345" data-name="Path 345" d="M473.534,340.381l28.979-16.731v50.193l-28.979,16.731Z" transform="translate(-444.554 -306.919)" fill="#d3008d"/>
              <path id="Path_346" data-name="Path 346" d="M462.037,333.743l28.979-16.731,28.979,16.731-28.979,16.731Z" transform="translate(-462.037 -317.012)" fill="#ff2c9c"/>
            </g>
            <g id="Group_103" data-name="Group 103" transform="translate(122.84)">
              <path id="Path_347" data-name="Path 347" d="M539.749,406.1V283.4L510.77,266.671V389.365Z" transform="translate(-510.77 -249.94)" fill="#d3008d"/>
              <path id="Path_348" data-name="Path 348" d="M522.267,283.4l28.979-16.731V389.365L522.267,406.1Z" transform="translate(-493.288 -249.94)" fill="#d3008d"/>
              <path id="Path_349" data-name="Path 349" d="M510.77,276.765l28.979-16.731,28.979,16.731L539.749,293.5Z" transform="translate(-510.77 -260.034)" fill="#ff2c9c"/>
            </g>
          </g>
          <path id="Path_350" data-name="Path 350" d="M486.441,303.978l28.979-16.731L544.4,303.978,515.42,320.709Z" transform="translate(-424.928 -218.653)" fill="#ff2c9c"/>
        </g>
      </g>
      <g id="Group_112" data-name="Group 112" transform="translate(303.394 277.174)">
        <g id="Group_111" data-name="Group 111">
          <g id="Group_108" data-name="Group 108" transform="translate(6.736)">
            <path id="Path_351" data-name="Path 351" d="M315.388,284.682s-8.946-4.512-14.441,2.206-13.347,22.575-13.589,33.29,8.479,9.992,13.664,7.456,20.331-24.508,21.249-28.813-1.081-10.125-2.538-11.265S315.388,284.682,315.388,284.682Z" transform="translate(-253.558 87.491)" fill="#5793ce"/>
            <path id="Path_352" data-name="Path 352" d="M309.467,284.224l.413,9.268a5.252,5.252,0,0,1-2.619,4.819,10.3,10.3,0,0,1-6.9,1.074c-6.74-1.084-7.34-3.007-7.822-12.273S309.467,284.224,309.467,284.224Z" transform="translate(-245.686 85.795)" fill="#d4ecff"/>
            <g id="Group_107" data-name="Group 107" transform="translate(0 164.421)">
              <path id="Path_353" data-name="Path 353" d="M302.4,277.613s-8.946-4.512-14.438,2.206-13.347,22.575-13.591,33.29,8.48,9.989,13.664,7.453,20.331-24.506,21.249-28.811-1.081-10.128-2.538-11.265S302.4,277.613,302.4,277.613Z" transform="translate(-273.313 -87.68)" fill="#5793ce"/>
              <path id="Path_354" data-name="Path 354" d="M296.476,277.154l.416,9.268a5.258,5.258,0,0,1-2.619,4.822,10.323,10.323,0,0,1-6.9,1.074c-6.738-1.084-7.34-3.01-7.822-12.276S296.476,277.154,296.476,277.154Z" transform="translate(-265.44 -89.378)" fill="#d4ecff"/>
              <path id="Path_355" data-name="Path 355" d="M384.8,219c-2.649-43.078-46.654,6.337-46.654,6.337l-30.117,29.522L280.91,284.65a26.728,26.728,0,0,0-6.735,21.476l10.97,83.539a8.211,8.211,0,0,0,8.232,7.136,28.112,28.112,0,0,0,4.066-.355c9.788-1.525,9.064-10.831,9.064-10.831L304.5,307.48l56.956-34.334S387.449,262.075,384.8,219Z" transform="translate(-273.946 -201.368)" fill="#173d7a"/>
            </g>
            <path id="Path_356" data-name="Path 356" d="M397.792,225.509c-2.647-43.078-46.652,6.339-46.652,6.339l-30.119,29.519L293.9,291.161a26.729,26.729,0,0,0-6.738,21.476l10.972,83.541a8.212,8.212,0,0,0,8.232,7.136,27.8,27.8,0,0,0,4.063-.358c9.788-1.525,9.067-10.829,9.067-10.829l-2.007-78.135,56.956-34.336S400.439,268.589,397.792,225.509Z" transform="translate(-254.193 -27.045)" fill="#173d7a"/>
            <path id="Path_357" data-name="Path 357" d="M359.417,162.9c33.363,13.833,32.693,33.552,32.693,33.552s-6.534,72.3-4.3,120.585c.93,20.185-107.246,21.725-91.114-32.125,19.023-63.495,11.892-114.9,20.8-122.649S350.786,159.328,359.417,162.9Z" transform="translate(-241.851 -102.723)" fill="#5793ce"/>
            <path id="Path_358" data-name="Path 358" d="M345.132,177.38c-1.744,6.775-10.62,10.345-19.822,7.975s-15.25-9.785-13.5-16.558,10.619-10.345,19.822-7.973S346.876,170.607,345.132,177.38Z" transform="translate(-216.832 -99.713)" fill="#ffc2b0"/>
            <path id="Path_359" data-name="Path 359" d="M331.9,188.633a24.168,24.168,0,0,1-6.029-.776,22.188,22.188,0,0,1-11.7-7.164c-2.879-3.531-3.927-7.554-2.954-11.335,1.961-7.617,11.724-11.711,21.766-9.117a22.193,22.193,0,0,1,11.7,7.161c2.879,3.531,3.927,7.557,2.954,11.335h0C346.078,184.8,339.562,188.633,331.9,188.633Zm-5.024-25.99c-6.2,0-11.376,2.881-12.568,7.511-.713,2.773.118,5.8,2.339,8.522a19,19,0,0,0,10.02,6.092c8.328,2.145,16.356-.918,17.881-6.828h0c.713-2.773-.118-5.8-2.339-8.522a19.031,19.031,0,0,0-10.02-6.092A21.407,21.407,0,0,0,326.881,162.642Z" transform="translate(-217.797 -100.671)" fill="#fff"/>
            <path id="Path_360" data-name="Path 360" d="M315.457,163.427s.287,1.338-.29,11.91c-.181,3.325,11.456,6.43,14.466,3.421s1.8-6.135,2.526-17.448S315.457,163.427,315.457,163.427Z" transform="translate(-211.268 -104.75)" fill="#ffc2b0"/>
            <path id="Path_361" data-name="Path 361" d="M332.158,158.576s-2.866,10.488-16.992,14.511l.214-9.533Z" transform="translate(-211.266 -102.016)" fill="#ea9c92"/>
            <circle id="Ellipse_9" data-name="Ellipse 9" cx="25.68" cy="25.68" r="25.68" transform="translate(69.873 45.646) rotate(-59.844)" fill="#ffc2b0"/>
            <path id="Path_362" data-name="Path 362" d="M337.1,154.671s-14.138,6.057-23.928,6.125-7.635-8.129-7.635-8.129l29.063-4.2Z" transform="translate(-226.22 -117.387)" fill="#ea9c92"/>
            <path id="Path_363" data-name="Path 363" d="M316.984,175.017s12.316-5.228,23.122-3.047a11.324,11.324,0,0,1,6.528,3.879,3.85,3.85,0,0,0,1.976,1.429c1.916.434,5.054-7.514,8.777-7.7s6.208,2.455,3.156,7.343-2.022,10.362-.618,11.146,16.309-10.63,3.164-36.67-46.536-12.016-51.731-6.738c0,0-5.472,4.767-9.921.524C301.436,145.188,296.451,182.549,316.984,175.017Z" transform="translate(-232.954 -136.137)" fill="#ff2c9c"/>
            <path id="Path_364" data-name="Path 364" d="M351.911,200.989v19.537a7.957,7.957,0,0,1-2.6,5.881L309.181,263l4.562,6.972,53-38.437a10.779,10.779,0,0,0,4.388-7.595l3.582-34.069Z" transform="translate(-220.367 -54.433)" fill="#ffc2b0"/>
            <path id="Path_365" data-name="Path 365" d="M343.792,169.449s12.175,18.31,16.709,66.507c0,0-20.8,6.728-32.6,2.909S343.792,169.449,343.792,169.449Z" transform="translate(-196.356 -85.483)" fill="#5793ce"/>
            <path id="Path_366" data-name="Path 366" d="M328.293,178.634s-4.769,25.509-5.039,37.5a7.655,7.655,0,0,0,5.039,7.39h0Z" transform="translate(-198.97 -71.516)" fill="#396caa"/>
          </g>
          <g id="Group_109" data-name="Group 109" transform="translate(6.416 193.977)">
            <path id="Path_367" data-name="Path 367" d="M393.048,250.04l-8.87-1.172L326.92,215.809a7.958,7.958,0,0,0-7.161.3l-40.575,23.417-5.364-.708v5.339h.005a2.088,2.088,0,0,0,1.233,1.88L339.949,283.5a7.958,7.958,0,0,0,7.161-.295L391.3,257.7a2.9,2.9,0,0,0,1.752-2.407h0Z" transform="translate(-273.818 -210.049)" fill="#5793ce"/>
            <path id="Path_368" data-name="Path 368" d="M350.026,222.088l-4.068-2.349H301.232l-22.048,12.722-5.364-.708v5.339h.005a2.088,2.088,0,0,0,1.233,1.88l64.891,37.464a6.7,6.7,0,0,0,3.7.693Z" transform="translate(-273.818 -202.986)" fill="#396caa"/>
            <path id="Path_369" data-name="Path 369" d="M276.2,224.817l-2.379-.313v5.339h.005a2.088,2.088,0,0,0,1.233,1.88l1.142.66Z" transform="translate(-273.818 -195.739)" fill="#5793ce"/>
            <path id="Path_370" data-name="Path 370" d="M300.314,248.061a8.3,8.3,0,0,0,6.085-.378V238.6h-6.085Z" transform="translate(-233.531 -174.307)" fill="#fff"/>
            <path id="Path_371" data-name="Path 371" d="M339.95,281.206l-64.891-37.464c-1.835-1.059-1.606-2.911.514-4.134l44.187-25.5a7.951,7.951,0,0,1,7.161-.3l64.891,37.464c1.835,1.059,1.606,2.911-.514,4.134l-44.187,25.5A7.959,7.959,0,0,1,339.95,281.206Z" transform="translate(-273.819 -213.093)" fill="#fff"/>
            <path id="Path_372" data-name="Path 372" d="M332.791,267.271l-53.957-31.153c-1.525-.882-1.334-2.42.428-3.438l23.679-13.314a6.611,6.611,0,0,1,5.954-.247l53.957,31.15c1.525.882,1.336,2.422-.429,3.438l-23.676,13.316A6.632,6.632,0,0,1,332.791,267.271Z" transform="translate(-267.759 -204.834)" fill="#d4ecff"/>
          </g>
          <path id="Path_373" data-name="Path 373" d="M293.666,214.363l-.671,4.479a33.1,33.1,0,0,0,.292,11.482l.8,3.945a5.551,5.551,0,0,0,4.446,4.358h0a3.061,3.061,0,0,0,3.589-2.672l1.071-9.571s2.45,3.209,3.632,3.209-1.323-9.586-4-15.01S293.666,214.363,293.666,214.363Z" transform="translate(-238.801 -20.606)" fill="#ffc2b0"/>
          <path id="Path_374" data-name="Path 374" d="M317.58,192.926l-6.962,13.783a27,27,0,0,0-2.848,10.458L304.745,264.3l-9.16-.219-4.159-52.933a19.388,19.388,0,0,1,.237-4.892l4.751-26.845Z" transform="translate(-240.721 -70.328)" fill="#ffc2b0"/>
          <g id="Group_110" data-name="Group 110" transform="translate(0 165.909)">
            <path id="Path_375" data-name="Path 375" d="M340.94,301.738l-5.442-7.1-57.218-33.126a7.959,7.959,0,0,1-3.315-6.357l.048-46.843-3.29-4.3,3.093-1.792,0,.005a2.094,2.094,0,0,1,2.243.129L341.908,239.9a7.963,7.963,0,0,1,3.315,6.355l-.055,51.018a2.89,2.89,0,0,1-1.212,2.72h0Z" transform="translate(-270.591 -201.958)" fill="#173d7a"/>
            <path id="Path_376" data-name="Path 376" d="M301.371,274.875l-4.066-2.354-22.315-38.76.023-25.453-3.29-4.3,3.093-1.792,0,.005a2.094,2.094,0,0,1,2.243.129L341.908,239.9a6.723,6.723,0,0,1,2.443,2.858Z" transform="translate(-270.591 -201.958)" fill="#396caa"/>
            <path id="Path_377" data-name="Path 377" d="M273.182,205.918l-1.459-1.906,3.093-1.792,0,.005a2.094,2.094,0,0,1,2.243.129l1.142.663Z" transform="translate(-270.591 -201.958)" fill="#5793ce"/>
            <path id="Path_378" data-name="Path 378" d="M303.819,217.175a8.3,8.3,0,0,1,2.71,5.462l-6.337,3.657-3.035-5.273Z" transform="translate(-231.915 -178.818)" fill="#274f89"/>
            <path id="Path_379" data-name="Path 379" d="M339.5,240.609l-64.846-37.542c-1.835-1.061-3.325.06-3.327,2.508l-.055,51.018a7.959,7.959,0,0,0,3.317,6.354l64.843,37.545c1.835,1.061,3.325-.063,3.327-2.511l.056-51.015A7.973,7.973,0,0,0,339.5,240.609Z" transform="translate(-271.274 -200.881)" fill="#5793ce"/>
          </g>
          <path id="Path_380" data-name="Path 380" d="M323.89,225.852,322.849,228a14.4,14.4,0,0,1-5.419,6.009l-6.44,3.97a6.414,6.414,0,0,1-6.576.151c-.073-.043-.146-.086-.219-.131a3.876,3.876,0,0,1-.547-5.954l6.73-6.919s-3.781,2.9-4.842,1.729c-.776-.854,3.667-5.026,7.08-5.165s6.712-2.816,6.712-2.816Z" transform="translate(-223.778 -10.316)" fill="#ffc2b0"/>
          <path id="Path_381" data-name="Path 381" d="M325.112,159.72s-24.677,26.847-34.631,51.476c0,0,8.439,15.2,29.093,21.168S325.112,159.72,325.112,159.72Z" transform="translate(-242.067 -100.277)" fill="#5793ce"/>
          <path id="Path_382" data-name="Path 382" d="M303.452,211.215l4-38.634-9.422,36.2A54.274,54.274,0,0,0,303.452,211.215Z" transform="translate(-230.591 -80.72)" fill="#396caa"/>
          <path id="Path_383" data-name="Path 383" d="M315.553,158.669l-6.632-1.822s3.166,4.981,7.786,6.251,5.341-2.644,5.341-2.644Z" transform="translate(-214.027 -104.646)" fill="#fff"/>
        </g>
        <path id="Path_384" data-name="Path 384" d="M325.968,153.542a1.648,1.648,0,1,1-1.648-1.648A1.647,1.647,0,0,1,325.968,153.542Z" transform="translate(-191.072 -112.133)" fill="#1c2331"/>
      </g>
      <path id="Path_385" data-name="Path 385" d="M551,179.316l-11.121-22.623,22.62-11.121,11.121,22.623Zm-4.371-20.324,6.672,13.574,13.568-6.67L560.2,152.322Z" transform="translate(440.577 155.384)" fill="#ff2c9c"/>
      <g id="Group_118" data-name="Group 118" transform="translate(396.281 690.479)">
        <path id="Path_386" data-name="Path 386" d="M420.15,336.394c-24.7-14.262-64.753-14.262-89.455,0s-24.7,37.386,0,51.648,64.75,14.262,89.452,0S444.852,350.656,420.15,336.394Zm-24.168,37.691c-11.353,6.556-29.764,6.556-41.119,0s-11.355-17.183,0-23.739,29.764-6.556,41.119,0S407.338,367.531,395.982,374.085Z" transform="translate(-301.971 -261.191)" fill="#d4ecff"/>
        <g id="Group_117" data-name="Group 117">
          <g id="Group_113" data-name="Group 113" transform="translate(8.594)">
            <path id="Path_387" data-name="Path 387" d="M322.335,347.091l22.562.353a23.983,23.983,0,0,1,7.126-5.991c12.409-7.164,31.919-7.718,45.437-1.671l13.407-12.611,20.644.323c-1.018-.668-2.067-1.326-3.173-1.964-28.69-16.566-75.206-16.566-103.893,0a54.532,54.532,0,0,0-12.911,10.057Z" transform="translate(-311.534 -280.339)" fill="#b70083"/>
            <path id="Path_388" data-name="Path 388" d="M371.587,306.008v32.766l-20.645-.322V305.686Z" transform="translate(-251.609 -291.62)" fill="#d3008d"/>
            <path id="Path_389" data-name="Path 389" d="M345.623,318.3v32.766l13.408-12.609V305.686Z" transform="translate(-259.697 -291.62)" fill="#b70083"/>
            <path id="Path_390" data-name="Path 390" d="M324.823,324.518v32.766L354.506,333.1l22.88,16.525V316.855l-21.067-10.221s-29,8.878-30.512,9.256S324.823,324.518,324.823,324.518Z" transform="translate(-291.46 -290.179)" fill="#b70083"/>
            <path id="Path_391" data-name="Path 391" d="M315.819,313.589v32.766l22.563.352V313.941Z" transform="translate(-305.018 -279.603)" fill="#b70083"/>
            <path id="Path_392" data-name="Path 392" d="M311.534,309.024V341.79l10.8,11.507V320.531Z" transform="translate(-311.534 -286.544)" fill="#d3008d"/>
            <path id="Path_393" data-name="Path 393" d="M322.335,334.092l22.562.353a23.984,23.984,0,0,1,7.126-5.992c12.409-7.164,31.919-7.718,45.437-1.671l13.407-12.611,20.644.323c-1.018-.668-2.067-1.326-3.173-1.964-28.69-16.566-75.206-16.566-103.893,0a54.6,54.6,0,0,0-12.911,10.057Z" transform="translate(-311.534 -300.106)" fill="#ff2c9c"/>
          </g>
          <g id="Group_115" data-name="Group 115" transform="translate(86.535 19.601)">
            <path id="Path_394" data-name="Path 394" d="M348.319,312.288v30.119l19.532-4.678s-1.147-17.624-1.563-18.1S348.319,312.288,348.319,312.288Z" transform="translate(-333.538 -301.182)" fill="#5793ce"/>
            <g id="Group_114" data-name="Group 114">
              <path id="Path_395" data-name="Path 395" d="M342.455,324.237V357l2.11,2.248,13.77-7.937S356.2,326.3,355.948,325.8,342.455,324.237,342.455,324.237Z" transform="translate(-342.455 -283.012)" fill="#173d7a"/>
              <path id="Path_396" data-name="Path 396" d="M369.043,320.881l-11.807,11.106c9.836,7.781,8.674,18.754-3.5,25.779a41.95,41.95,0,0,1-11.285,4.34l12.2,13-10.814,10.168c13.73-1.585,26.83-5.444,37.474-11.59,24.664-14.239,28.1-36.08,10.362-52.454Z" transform="translate(-342.455 -288.115)" fill="#396caa"/>
              <path id="Path_397" data-name="Path 397" d="M343.007,359.425v32.766l26.775-10.34,32.2-30.724-.12-34.792L367.8,343.34Z" transform="translate(-341.615 -295.028)" fill="#396caa"/>
              <path id="Path_398" data-name="Path 398" d="M369.043,307.882l-11.807,11.106c9.836,7.781,8.674,18.754-3.5,25.779a41.946,41.946,0,0,1-11.285,4.341l12.2,13-10.814,10.171c13.73-1.586,26.83-5.445,37.474-11.59,24.664-14.239,28.1-36.08,10.362-52.454Z" transform="translate(-342.455 -307.882)" fill="#d4ecff"/>
            </g>
          </g>
          <g id="Group_116" data-name="Group 116" transform="translate(0 28.859)">
            <path id="Path_399" data-name="Path 399" d="M395.962,369.353l-10.756-11.459c-9.987.6-20.344-1.3-28-5.714-7.907-4.565-11.161-10.8-9.78-16.734l-25.615-.4-9.851-10.493c-8.616,14.786-2.737,31.768,17.665,43.549,14.993,8.656,34.853,12.777,54.491,12.386Z" transform="translate(-308.124 -291.788)" fill="#396caa"/>
            <path id="Path_400" data-name="Path 400" d="M384.118,359.161v32.766l-75.991-42.111V317.033l11.1,4.485Z" transform="translate(-308.121 -303.224)" fill="#396caa"/>
            <path id="Path_401" data-name="Path 401" d="M350.116,329.328v32.766l-11.842,11.137V340.465Z" transform="translate(-262.277 -284.529)" fill="#173d7a"/>
            <path id="Path_402" data-name="Path 402" d="M395.962,356.354,385.207,344.9c-9.987.6-20.344-1.3-28-5.714-7.907-4.565-11.161-10.8-9.78-16.735l-25.615-.4-9.851-10.493c-8.616,14.786-2.737,31.768,17.665,43.549,14.993,8.656,34.853,12.777,54.491,12.387Z" transform="translate(-308.124 -311.555)" fill="#5793ce"/>
          </g>
        </g>
      </g>
      <path id="Path_403" data-name="Path 403" d="M285.261,139.457a16.384,16.384,0,1,1,16.384-16.384A16.4,16.4,0,0,1,285.261,139.457Zm0-27.727A11.343,11.343,0,1,0,296.6,123.073,11.353,11.353,0,0,0,285.261,111.73Z" transform="translate(28.476 96.257)" fill="#5793ce"/>
      <path id="Path_404" data-name="Path 404" d="M273.933,329.894A11.891,11.891,0,1,1,262.041,318,11.891,11.891,0,0,1,273.933,329.894Z" transform="translate(0 417.587)" fill="#d4ecff"/>
      <path id="Path_405" data-name="Path 405" d="M517.893,61.292a14.172,14.172,0,1,1-14.171-14.174A14.171,14.171,0,0,1,517.893,61.292Z" transform="translate(364.037 5.671)" fill="#d4ecff"/>
      <g id="Group_121" data-name="Group 121" transform="translate(725.82 174.016)">
        <g id="Group_119" data-name="Group 119">
          <path id="Path_406" data-name="Path 406" d="M517.1,134.754,449.7,95.842a3.448,3.448,0,0,0-3.484-.28l.005-.045L439.679,99.3s2.9,1.056,4.6,1.679v49.082c0,3.993,2.427,8.631,5.422,10.36l64.42,37.194v5.757l6.6-3.8-.035-.013c1.117-.681,1.833-2.173,1.833-4.323V145.116C522.517,141.121,520.09,136.483,517.1,134.754Z" transform="translate(-437.617 -95.212)" fill="#d3008d"/>
          <path id="Path_407" data-name="Path 407" d="M511.682,200.864l-67.4-38.911c-2.994-1.729-5.422-6.37-5.422-10.362V101.475c0-3.993,2.427-5.828,5.422-4.1l67.4,38.911c2.994,1.729,5.422,6.37,5.422,10.362v50.115C517.1,200.758,514.677,202.593,511.682,200.864Z" transform="translate(-438.861 -92.909)" fill="#ff2c9c"/>
        </g>
        <g id="Group_120" data-name="Group 120" transform="translate(18.993 43.276)">
          <path id="Path_408" data-name="Path 408" d="M455.49,120.877c0,2.9-2.037,4.076-4.547,2.626a10.045,10.045,0,0,1-4.547-7.877c0-2.9,2.034-4.076,4.547-2.624A10.051,10.051,0,0,1,455.49,120.877Z" transform="translate(-446.396 -112.38)" fill="#fff"/>
          <path id="Path_409" data-name="Path 409" d="M460.955,124.033c0,2.9-2.034,4.076-4.547,2.624a10.051,10.051,0,0,1-4.547-7.874c0-2.9,2.037-4.076,4.547-2.627A10.045,10.045,0,0,1,460.955,124.033Z" transform="translate(-438.086 -107.582)" fill="#fff"/>
          <path id="Path_410" data-name="Path 410" d="M466.423,127.188c0,2.9-2.037,4.076-4.547,2.626a10.048,10.048,0,0,1-4.55-7.877c0-2.9,2.037-4.076,4.55-2.624A10.051,10.051,0,0,1,466.423,127.188Z" transform="translate(-429.775 -102.784)" fill="#fff"/>
        </g>
      </g>
      <g id="Group_124" data-name="Group 124" transform="translate(399.612 98.212)">
        <g id="Group_122" data-name="Group 122">
          <path id="Path_411" data-name="Path 411" d="M386.2,103.932,320.077,65.757a3.385,3.385,0,0,0-3.418-.275l.005-.043-6.415,3.708s2.841,1.033,4.507,1.646v48.152c0,3.917,2.382,8.467,5.321,10.163l63.2,36.489v5.649l6.48-3.731-.035-.013c1.094-.668,1.8-2.135,1.8-4.242V114.1C391.517,110.178,389.135,105.629,386.2,103.932Z" transform="translate(-308.225 -65.139)" fill="#5793ce"/>
          <path id="Path_412" data-name="Path 412" d="M380.886,168.787l-66.119-38.173c-2.939-1.7-5.321-6.249-5.321-10.166V71.284c0-3.917,2.382-5.717,5.321-4.02l66.119,38.173c2.939,1.7,5.321,6.249,5.321,10.166v49.165C386.207,168.684,383.825,170.483,380.886,168.787Z" transform="translate(-309.446 -62.879)" fill="#d4ecff"/>
        </g>
        <g id="Group_123" data-name="Group 123" transform="translate(18.633 42.456)">
          <path id="Path_413" data-name="Path 413" d="M325.761,90.318c0,2.846-2,4-4.461,2.576a9.863,9.863,0,0,1-4.462-7.726c0-2.846,2-4,4.462-2.576A9.857,9.857,0,0,1,325.761,90.318Z" transform="translate(-316.838 -81.982)" fill="#fff"/>
          <path id="Path_414" data-name="Path 414" d="M331.123,93.415c0,2.846-2,4-4.462,2.576a9.861,9.861,0,0,1-4.461-7.728c0-2.846,2-4,4.461-2.576A9.868,9.868,0,0,1,331.123,93.415Z" transform="translate(-308.684 -77.275)" fill="#fff"/>
          <path id="Path_415" data-name="Path 415" d="M336.485,96.508c0,2.846-2,4-4.461,2.576a9.857,9.857,0,0,1-4.462-7.726c0-2.846,2-4,4.462-2.576A9.863,9.863,0,0,1,336.485,96.508Z" transform="translate(-300.531 -72.567)" fill="#fff"/>
        </g>
      </g>
    </g>
  </g>
</svg>
